<?xml version="1.0" encoding="UTF-8"?>
<svg xmlns="http://www.w3.org/2000/svg" xmlns:xlink="http://www.w3.org/1999/xlink" viewBox="0 0 50 50" width="50px" height="50px">
<g id="surface66432997">
<path style=" stroke:none;fill-rule:nonzero;fill:rgb(100%,100%,100%);fill-opacity:1;" d="M 25 2 C 12.308594 2 2 12.308594 2 25 C 2 37.691406 12.308594 48 25 48 C 37.691406 48 48 37.691406 48 25 C 48 12.308594 37.691406 2 25 2 Z M 25 4 C 36.609375 4 46 13.390625 46 25 C 46 36.609375 36.609375 46 25 46 C 22.875 46 20.828125 45.683594 18.894531 45.097656 C 19.757812 43.660156 20.867188 41.605469 21.308594 39.90625 C 21.570312 38.898438 22.648438 34.792969 22.648438 34.792969 C 23.347656 36.132812 25.394531 37.261719 27.574219 37.261719 C 34.058594 37.261719 38.730469 31.300781 38.730469 23.890625 C 38.730469 16.785156 32.933594 11.472656 25.476562 11.472656 C 16.195312 11.472656 11.269531 17.699219 11.269531 24.484375 C 11.269531 27.636719 12.949219 31.5625 15.632812 32.8125 C 16.042969 33 16.261719 32.917969 16.351562 32.527344 C 16.425781 32.226562 16.789062 30.765625 16.949219 30.089844 C 17.003906 29.871094 16.976562 29.683594 16.800781 29.472656 C 15.914062 28.390625 15.199219 26.410156 15.199219 24.566406 C 15.199219 19.820312 18.792969 15.234375 24.910156 15.234375 C 30.191406 15.234375 33.886719 18.832031 33.886719 23.980469 C 33.886719 29.796875 30.953125 33.828125 27.128906 33.828125 C 25.019531 33.828125 23.441406 32.082031 23.945312 29.941406 C 24.554688 27.382812 25.726562 24.625 25.726562 22.78125 C 25.726562 21.128906 24.84375 19.753906 23.007812 19.753906 C 20.851562 19.753906 19.117188 21.984375 19.117188 24.976562 C 19.117188 26.878906 19.761719 28.167969 19.761719 28.167969 C 19.761719 28.167969 17.628906 37.175781 17.238281 38.855469 C 16.847656 40.53125 16.953125 42.785156 17.113281 44.46875 C 9.421875 41.351562 4 33.820312 4 25 C 4 13.390625 13.390625 4 25 4 Z M 25 4 "/>
</g>
</svg>
